<?xml version="1.0" standalone="no"?>
<!DOCTYPE svg PUBLIC "-//W3C//DTD SVG 20010904//EN"
 "http://www.w3.org/TR/2001/REC-SVG-20010904/DTD/svg10.dtd">
<svg version="1.0" xmlns="http://www.w3.org/2000/svg"
 width="260.000000pt" height="260.000000pt" viewBox="0 0 260.000000 260.000000"
 preserveAspectRatio="xMidYMid meet">
<metadata>
Created by potrace 1.11, written by Peter Selinger 2001-2013
</metadata>
<g transform="translate(0.000000,260.000000) scale(0.100000,-0.100000)"
fill="#000000" stroke="none">
<path d="M9 2568 c-5 -15 -2 -111 4 -115 4 -2 4 -9 1 -15 -10 -15 -11 -99 -2
-104 5 -3 5 -10 2 -16 -10 -15 -11 -99 -2 -104 5 -3 5 -10 2 -16 -10 -15 -11
-99 -2 -104 5 -3 5 -10 2 -16 -10 -15 -11 -99 -2 -104 5 -3 5 -10 2 -16 -10
-15 -11 -99 -2 -104 5 -3 5 -10 2 -16 -10 -15 -11 -99 -2 -104 5 -3 5 -10 2
-16 -10 -15 -11 -99 -2 -104 5 -3 5 -10 2 -16 -10 -15 -11 -99 -2 -104 5 -3 5
-10 2 -16 -10 -15 -11 -99 -2 -104 5 -3 5 -10 2 -16 -10 -15 -11 -99 -2 -104
4 -3 4 -14 -2 -24 -7 -13 -7 -21 0 -25 8 -5 7 -11 -1 -21 -7 -8 -7 -14 -1 -14
5 0 9 -18 8 -40 -1 -22 1 -41 5 -42 4 -2 9 -21 12 -43 6 -41 14 -78 24 -105 3
-8 7 -21 9 -28 5 -24 67 -177 74 -182 4 -3 11 -16 15 -29 4 -14 20 -42 36 -64
16 -22 29 -44 29 -49 0 -4 8 -16 17 -26 27 -29 53 -62 53 -68 0 -8 130 -138
176 -176 70 -57 194 -141 194 -132 0 3 12 -3 28 -14 23 -16 52 -31 72 -37 3
-1 23 -9 45 -19 22 -10 47 -19 55 -21 8 -2 16 -4 18 -5 1 -2 7 -4 12 -5 6 -1
11 -3 13 -5 2 -2 17 -5 55 -14 12 -3 26 -7 32 -11 5 -3 25 -6 45 -7 19 -1 35
-4 35 -7 0 -4 17 -6 38 -6 20 1 43 -3 50 -8 8 -6 12 -5 12 3 0 9 3 10 13 1 10
-8 17 -7 27 2 7 6 10 7 7 1 -4 -7 16 -11 59 -12 48 -1 63 2 57 11 -5 9 -3 9 9
0 8 -7 17 -11 19 -8 3 2 30 6 60 8 30 2 59 6 64 9 6 3 18 4 28 3 9 -2 17 0 17
4 0 4 10 7 23 6 12 -1 27 0 32 4 6 3 16 7 23 8 29 7 47 12 50 13 1 2 7 4 12 5
6 1 12 4 15 5 3 1 10 4 15 5 6 1 12 4 15 5 3 1 8 3 13 5 22 6 74 29 127 57 33
17 70 36 82 42 13 6 23 14 23 19 0 4 6 7 13 7 6 0 24 10 40 23 15 12 42 33 59
47 54 42 201 193 233 241 17 24 37 49 45 56 8 7 11 13 7 13 -4 0 5 19 21 43
30 45 46 77 44 90 -1 4 2 7 6 7 9 0 37 70 34 83 -1 4 2 7 8 7 6 0 9 3 8 7 -1
5 8 40 20 78 12 39 24 82 27 95 3 14 7 36 10 50 18 91 23 288 10 375 -3 22 -8
60 -11 85 -2 25 -9 47 -14 48 -6 2 -8 7 -5 12 5 9 -20 106 -35 132 -6 10 -10
26 -10 35 0 10 -9 29 -19 42 -10 14 -17 31 -14 38 3 7 0 13 -7 13 -6 0 -8 5
-5 10 3 6 3 10 -2 10 -4 0 -14 13 -20 28 -13 28 -87 146 -107 169 -96 113
-134 153 -148 158 -10 3 -18 13 -18 21 0 8 -4 14 -8 14 -8 0 -54 34 -84 63
-10 9 -20 17 -22 17 -3 0 -24 13 -48 29 -63 42 -157 91 -174 91 -8 0 -14 5
-14 12 0 6 -3 9 -6 5 -4 -3 -19 0 -35 9 -16 8 -29 12 -29 8 0 -4 -7 -1 -15 6
-9 7 -18 10 -22 7 -3 -4 -13 -1 -21 5 -14 12 -20 14 -72 23 -14 2 -39 8 -57
14 -17 5 -34 7 -36 4 -3 -2 -15 1 -27 7 -18 10 -21 10 -14 -2 6 -11 5 -11 -8
0 -13 10 -17 10 -21 0 -4 -10 -6 -10 -6 -1 -1 10 -156 13 -701 13 -385 0 -700
-1 -701 -2z m1366 -373 c33 -2 71 -7 85 -10 14 -3 40 -8 58 -11 17 -4 32 -10
32 -14 0 -4 18 -10 39 -14 22 -3 47 -13 55 -22 9 -8 16 -13 16 -10 0 7 106
-50 147 -79 46 -33 211 -202 218 -224 3 -12 11 -21 16 -21 5 0 9 -5 9 -11 0
-6 9 -23 20 -39 11 -15 17 -30 13 -34 -3 -3 -1 -6 5 -6 7 0 12 -5 12 -11 0 -6
6 -25 14 -42 44 -101 68 -206 70 -309 1 -27 6 -48 11 -48 6 0 3 -5 -5 -10 -8
-5 -10 -10 -5 -10 6 0 3 -5 -5 -10 -10 -7 -11 -10 -2 -10 8 0 11 -9 8 -22 -3
-13 -7 -41 -10 -63 -5 -36 -9 -55 -21 -105 -2 -8 -4 -15 -5 -15 -1 0 -3 -8 -5
-18 -2 -10 -7 -26 -11 -35 -4 -9 -8 -19 -9 -22 -1 -3 -6 -16 -12 -30 -6 -14
-11 -29 -11 -34 0 -5 -4 -12 -9 -15 -4 -3 -17 -23 -28 -45 -11 -21 -32 -52
-47 -70 -15 -17 -28 -35 -28 -40 0 -10 -123 -132 -160 -159 -109 -78 -271
-154 -350 -163 -42 -6 -75 -12 -75 -15 0 -8 -222 -5 -232 3 -9 8 -13 7 -13 -3
0 -10 -3 -10 -8 -3 -4 6 -22 11 -41 10 -18 -1 -36 4 -38 10 -2 7 -13 10 -24 7
-10 -3 -19 0 -19 6 0 5 -7 8 -15 5 -8 -4 -21 -2 -28 4 -6 5 -31 16 -54 23 -24
6 -43 15 -43 19 0 8 -39 23 -52 21 -5 -1 -8 2 -8 7 0 4 -17 16 -37 27 -20 11
-55 37 -78 57 -22 21 -46 38 -52 38 -7 0 -13 5 -13 10 0 6 -18 29 -40 51 -45
45 -100 122 -100 138 0 6 -3 11 -8 11 -4 0 -13 15 -21 33 -8 17 -17 34 -21 37
-5 4 -51 136 -56 163 -1 4 -2 8 -3 10 -6 6 -14 56 -15 89 0 21 -4 38 -7 38 -7
0 -3 185 5 220 3 14 11 49 17 78 16 79 94 262 111 262 5 0 6 5 3 10 -3 6 -2
10 2 10 5 0 16 12 25 28 9 15 27 39 40 53 13 14 32 37 43 52 11 15 23 27 26
27 4 0 24 16 44 35 44 40 151 115 164 115 5 0 32 11 59 25 28 14 56 25 64 25
8 0 18 3 22 7 4 4 19 9 34 11 15 2 29 6 32 10 5 7 18 9 113 16 32 2 60 6 62 8
3 2 19 3 37 1 18 -2 60 -5 93 -8z"/>
<path d="M1206 1842 c-2 -1 -14 -5 -27 -8 -13 -3 -28 -7 -34 -8 -5 -2 -25 -7
-42 -11 -18 -4 -33 -12 -33 -17 0 -5 -5 -6 -10 -3 -6 3 -17 -1 -26 -9 -9 -9
-19 -14 -24 -11 -5 3 -10 2 -12 -2 -1 -5 -29 -27 -60 -51 -31 -24 -63 -54 -72
-66 -8 -13 -21 -29 -28 -37 -20 -20 -79 -142 -81 -167 -1 -12 -4 -22 -8 -22
-4 0 -7 -17 -6 -37 1 -28 -3 -37 -13 -35 -9 2 -11 -1 -3 -10 5 -7 9 -30 7 -51
-1 -20 3 -40 8 -43 5 -3 5 -11 -2 -19 -8 -9 -8 -15 0 -20 6 -3 8 -10 5 -15 -6
-10 32 -128 48 -147 5 -7 6 -13 3 -13 -4 0 -1 -7 6 -15 30 -33 38 -45 32 -45
-4 0 3 -8 14 -19 12 -10 22 -21 22 -25 0 -8 39 -45 76 -72 14 -10 32 -25 40
-32 7 -7 15 -12 16 -11 2 1 22 -8 46 -20 23 -12 42 -19 42 -15 0 4 6 1 13 -5
8 -6 27 -12 43 -14 17 -2 34 -6 40 -9 14 -9 194 -6 194 3 0 4 6 6 13 6 21 -2
87 15 87 22 0 4 9 7 20 8 11 1 32 11 46 22 15 12 33 21 40 21 7 0 19 8 26 18
7 10 25 27 40 38 33 26 93 104 103 133 3 11 11 21 17 21 5 0 8 6 5 14 -3 8 -2
16 3 18 6 2 15 27 22 56 7 28 15 52 18 52 3 0 5 42 4 93 0 92 -10 163 -24 182
-4 6 -11 24 -14 42 -4 17 -14 37 -22 43 -7 7 -11 16 -8 21 3 5 0 9 -5 9 -6 0
-11 4 -11 10 0 19 -73 98 -135 146 -55 44 -153 87 -225 99 -37 7 -170 12 -174
7z"/>
</g>
</svg>
