<?xml version="1.0" encoding="utf-8"?>
<!-- Generator: Adobe Illustrator 18.1.1, SVG Export Plug-In . SVG Version: 6.00 Build 0)  -->
<svg version="1.1" id="Слой_1" xmlns="http://www.w3.org/2000/svg" xmlns:xlink="http://www.w3.org/1999/xlink" x="0px" y="0px"
	 viewBox="0 0 841.9 595.3" enable-background="new 0 0 841.9 595.3" xml:space="preserve">
<g>
	<path fill="#FFFFFF" d="M46.1,366.5c-10.5,0-20.9-2-26.2-4v55.8H5.2V237.1c8.2-4.7,24.9-9.2,40.4-9.2c39.7,0,62.6,27.4,62.6,67.8
		C108.1,336.6,85.7,366.5,46.1,366.5z M45.8,240.1c-10.2,0-21.2,2.5-25.9,5v105.2c4.5,1.8,16.2,4,25.4,4c31.4,0,48.1-25.2,48.1-58.6
		C93.4,262.5,76.5,240.1,45.8,240.1z"/>
	<path fill="#FFFFFF" d="M196.7,241.1c-3-0.5-6.5-0.7-10-0.7c-10.7,0-22.9,2-29.9,5.2v119.2h-14.7V237.1c11.2-5.5,29.7-9.2,46.4-9.2
		c5.5,0,10.2,0.2,11.4,0.5L196.7,241.1z"/>
	<path fill="#FFFFFF" d="M274,367.3c-36.4,0-55.4-30.2-55.4-69.8c0-39.6,19-69.5,55.4-69.5c36.4,0,55.3,29.9,55.3,69.5
		C329.3,337.1,310.3,367.3,274,367.3z M274,240.1c-27.7,0-40.7,24.4-40.7,57.3c0,32.9,13,57.4,40.7,57.4s40.7-24.5,40.7-57.4
		C314.6,264.5,301.6,240.1,274,240.1z"/>
	<path fill="#FFFFFF" d="M406.6,367.8c-18.7,0-36.6-4.5-47.6-9.8V169h33.9v64.1c6-2.7,15.7-4.5,23.7-4.5c34.9,0,58.6,24.2,58.6,65.3
		C475.1,344.3,449.5,367.8,406.6,367.8z M410.1,254.6c-6.3,0-13,1.5-17.2,3.5v80.3c3.2,1.5,9.5,2.8,15.7,2.8
		c19.4,0,32.4-14.7,32.4-44.4C441,270.2,429.3,254.6,410.1,254.6z"/>
	<path fill="#FFFFFF" d="M555.2,367.8c-40.4,0-60.6-16-60.6-43.4c0-36.6,38.2-43.9,78.8-46.1v-7c0-13.9-9.7-19.2-25.2-19.2
		c-12.7,0-28.2,4-37.6,8l-8.5-22.9c11.2-4.7,30.4-9.7,49.9-9.7c34.4,0,53.6,13.4,53.6,47.9V358C595.6,363.2,575.4,367.8,555.2,367.8
		z M573.4,299.9c-24.9,1.2-46.9,3.5-46.9,23.7c0,12.7,10,19.9,27.7,19.9c7.2,0,15.7-1.2,19.2-2.7V299.9z"/>
	<path fill="#FFFFFF" d="M671.6,367.8c-16.7,0-33.4-4.5-43.4-9.8l11-25.9c6.7,4.3,21.7,8.7,31.4,8.7c12.2,0,20.2-5.7,20.2-14.7
		c0-10-8.7-14.2-20.7-18.5c-17-6.2-38.4-14.2-38.4-40.6c0-23.7,17.9-39.6,49.4-39.6c17.2,0,31.1,4.2,41.4,9.7L712,260.3
		c-5.7-3.5-17.7-7.7-26.7-7.7c-11.9,0-19,6-19,14c0,10.2,8.7,14.2,20.4,18.5c17.7,6.5,39.4,13.9,39.4,41.1
		C726.2,351.3,707.5,367.8,671.6,367.8z"/>
	<path fill="#FFFFFF" d="M784.6,367.8c-16.7,0-33.4-4.5-43.4-9.8l10.9-25.9c6.8,4.3,21.7,8.7,31.4,8.7c12.3,0,20.2-5.7,20.2-14.7
		c0-10-8.7-14.2-20.7-18.5c-16.9-6.2-38.4-14.2-38.4-40.6c0-23.7,18-39.6,49.4-39.6c17.2,0,31.2,4.2,41.4,9.7L825,260.3
		c-5.7-3.5-17.7-7.7-26.7-7.7c-12,0-19,6-19,14c0,10.2,8.7,14.2,20.5,18.5c17.7,6.5,39.4,13.9,39.4,41.1
		C839.2,351.3,820.5,367.8,784.6,367.8z"/>
</g>
</svg>
