<svg version="1" xmlns="http://www.w3.org/2000/svg" width="346.667" height="346.667" viewBox="0 0 260.000000 260.000000"><path d="M.9 3.2c-.5 1.5-.2 11.1.4 11.5.4.2.4.9.1 1.5-1 1.5-1.1 9.9-.2 10.4.5.3.5 1 .2 1.6-1 1.5-1.1 9.9-.2 10.4.5.3.5 1 .2 1.6-1 1.5-1.1 9.9-.2 10.4.5.3.5 1 .2 1.6-1 1.5-1.1 9.9-.2 10.4.5.3.5 1 .2 1.6-1 1.5-1.1 9.9-.2 10.4.5.3.5 1 .2 1.6-1 1.5-1.1 9.9-.2 10.4.5.3.5 1 .2 1.6-1 1.5-1.1 9.9-.2 10.4.5.3.5 1 .2 1.6-1 1.5-1.1 9.9-.2 10.4.5.3.5 1 .2 1.6-1 1.5-1.1 9.9-.2 10.4.5.3.5 1 .2 1.6-1 1.5-1.1 9.9-.2 10.4.4.3.4 1.4-.2 2.4-.7 1.3-.7 2.1 0 2.5.8.5.7 1.1-.1 2.1-.7.8-.7 1.4-.1 1.4.5 0 .9 1.8.8 4-.1 2.2.1 4.1.5 4.2.4.2.9 2.1 1.2 4.3.6 4.1 1.4 7.8 2.4 10.5.3.8.7 2.1.9 2.8.5 2.4 6.7 17.7 7.4 18.2.4.3 1.1 1.6 1.5 2.9.4 1.4 2 4.2 3.6 6.4s2.9 4.4 2.9 4.9c0 .4.8 1.6 1.7 2.6 2.7 2.9 5.3 6.2 5.3 6.8 0 .8 13 13.8 17.6 17.6 7 5.7 19.4 14.1 19.4 13.2 0-.3 1.2.3 2.8 1.4 2.3 1.6 5.2 3.1 7.2 3.7.3.1 2.3.9 4.5 1.9 2.2 1 4.7 1.9 5.5 2.1.8.2 1.6.4 1.8.5.1.2.7.4 1.2.5.6.1 1.1.3 1.3.5.2.2 1.7.5 5.5 1.4 1.2.3 2.6.7 3.2 1.1.5.3 2.5.6 4.5.7 1.9.1 3.5.4 3.5.7 0 .4 1.7.6 3.8.6 2-.1 4.3.3 5 .8.8.6 1.2.5 1.2-.3 0-.9.3-1 1.3-.1 1 .8 1.7.7 2.7-.2.7-.6 1-.7.7-.1-.4.7 1.6 1.1 5.9 1.2 4.8.1 6.3-.2 5.7-1.1-.5-.9-.3-.9.9 0 .8.7 1.7 1.1 1.9.8.3-.2 3-.6 6-.8 3-.2 5.9-.6 6.4-.9.6-.3 1.8-.4 2.8-.3.9.2 1.7 0 1.7-.4s1-.7 2.3-.6c1.2.1 2.7 0 3.2-.4.6-.3 1.6-.7 2.3-.8 2.9-.7 4.7-1.2 5-1.3.1-.2.7-.4 1.2-.5.6-.1 1.2-.4 1.5-.5.3-.1 1-.4 1.5-.5.6-.1 1.2-.4 1.5-.5.3-.1.8-.3 1.3-.5 2.2-.6 7.4-2.9 12.7-5.7 3.3-1.7 7-3.6 8.2-4.2 1.3-.6 2.3-1.4 2.3-1.9 0-.4.6-.7 1.3-.7.6 0 2.4-1 4-2.3 1.5-1.2 4.2-3.3 5.9-4.7 5.4-4.2 20.1-19.3 23.3-24.1 1.7-2.4 3.7-4.9 4.5-5.6.8-.7 1.1-1.3.7-1.3-.4 0 .5-1.9 2.1-4.3 3-4.5 4.6-7.7 4.4-9-.1-.4.2-.7.6-.7.9 0 3.7-7 3.4-8.3-.1-.4.2-.7.8-.7.6 0 .9-.3.8-.7-.1-.5.8-4 2-7.8 1.2-3.9 2.4-8.2 2.7-9.5.3-1.4.7-3.6 1-5 1.8-9.1 2.3-28.8 1-37.5-.3-2.2-.8-6-1.1-8.5-.2-2.5-.9-4.7-1.4-4.8-.6-.2-.8-.7-.5-1.2.5-.9-2-10.6-3.5-13.2-.6-1-1-2.6-1-3.5 0-1-.9-2.9-1.9-4.2-1-1.4-1.7-3.1-1.4-3.8.3-.7 0-1.3-.7-1.3-.6 0-.8-.5-.5-1 .3-.6.3-1-.2-1-.4 0-1.4-1.3-2-2.8-1.3-2.8-8.7-14.6-10.7-16.9C220 42 216.2 38 214.8 37.5c-1-.3-1.8-1.3-1.8-2.1s-.4-1.4-.8-1.4c-.8 0-5.4-3.4-8.4-6.3-1-.9-2-1.7-2.2-1.7-.3 0-2.4-1.3-4.8-2.9-6.3-4.2-15.7-9.1-17.4-9.1-.8 0-1.4-.5-1.4-1.2 0-.6-.3-.9-.6-.5-.4.3-1.9 0-3.5-.9-1.6-.8-2.9-1.2-2.9-.8 0 .4-.7.1-1.5-.6-.9-.7-1.8-1-2.2-.7-.3.4-1.3.1-2.1-.5-1.4-1.2-2-1.4-7.2-2.3-1.4-.2-3.9-.8-5.7-1.4-1.7-.5-3.4-.7-3.6-.4-.3.2-1.5-.1-2.7-.7-1.8-1-2.1-1-1.4.2.6 1.1.5 1.1-.8 0-1.3-1-1.7-1-2.1 0-.4 1-.6 1-.6.1C141 3.3 125.5 3 71 3 32.5 3 1 3.1.9 3.2zm136.6 37.3c3.3.2 7.1.7 8.5 1 1.4.3 4 .8 5.8 1.1 1.7.4 3.2 1 3.2 1.4 0 .4 1.8 1 3.9 1.4 2.2.3 4.7 1.3 5.5 2.2.9.8 1.6 1.3 1.6 1 0-.7 10.6 5 14.7 7.9 4.6 3.3 21.1 20.2 21.8 22.4.3 1.2 1.1 2.1 1.6 2.1s.9.5.9 1.1c0 .6.9 2.3 2 3.9 1.1 1.5 1.7 3 1.3 3.4-.3.3-.1.6.5.6.7 0 1.2.5 1.2 1.1 0 .6.6 2.5 1.4 4.2 4.4 10.1 6.8 20.6 7 30.9.1 2.7.6 4.8 1.1 4.8.6 0 .3.5-.5 1s-1 1-.5 1c.6 0 .3.5-.5 1-1 .7-1.1 1-.2 1 .8 0 1.1.9.8 2.2-.3 1.3-.7 4.1-1 6.3-.5 3.6-.9 5.5-2.1 10.5-.2.8-.4 1.5-.5 1.5-.1 0-.3.8-.5 1.8s-.7 2.6-1.1 3.5c-.4.9-.8 1.9-.9 2.2-.1.3-.6 1.6-1.2 3s-1.1 2.9-1.1 3.4-.4 1.2-.9 1.5c-.4.3-1.7 2.3-2.8 4.5-1.1 2.1-3.2 5.2-4.7 7-1.5 1.7-2.8 3.5-2.8 4 0 1-12.3 13.2-16 15.9-10.9 7.8-27.1 15.4-35 16.3-4.2.6-7.5 1.2-7.5 1.5 0 .8-22.2.5-23.2-.3-.9-.8-1.3-.7-1.3.3s-.3 1-.8.3c-.4-.6-2.2-1.1-4.1-1-1.8.1-3.6-.4-3.8-1-.2-.7-1.3-1-2.4-.7-1 .3-1.9 0-1.9-.6 0-.5-.7-.8-1.5-.5-.8.4-2.1.2-2.8-.4-.6-.5-3.1-1.6-5.4-2.3-2.4-.6-4.3-1.5-4.3-1.9 0-.8-3.9-2.3-5.2-2.1-.5.1-.8-.2-.8-.7 0-.4-1.7-1.6-3.7-2.7s-5.5-3.7-7.8-5.7c-2.2-2.1-4.6-3.8-5.2-3.8-.7 0-1.3-.5-1.3-1 0-.6-1.8-2.9-4-5.1-4.5-4.5-10-12.2-10-13.8 0-.6-.3-1.1-.8-1.1-.4 0-1.3-1.5-2.1-3.3-.8-1.7-1.7-3.4-2.1-3.7-.5-.4-5.1-13.6-5.6-16.3-.1-.4-.2-.8-.3-1-.6-.6-1.4-5.6-1.5-8.9 0-2.1-.4-3.8-.7-3.8-.7 0-.3-18.5.5-22 .3-1.4 1.1-4.9 1.7-7.8 1.6-7.9 9.4-26.2 11.1-26.2.5 0 .6-.5.3-1-.3-.6-.2-1 .2-1 .5 0 1.6-1.2 2.5-2.8.9-1.5 2.7-3.9 4-5.3 1.3-1.4 3.2-3.7 4.3-5.2 1.1-1.5 2.3-2.7 2.6-2.7.4 0 2.4-1.6 4.4-3.5 4.4-4 15.1-11.5 16.4-11.5.5 0 3.2-1.1 5.9-2.5 2.8-1.4 5.6-2.5 6.4-2.5.8 0 1.8-.3 2.2-.7.4-.4 1.9-.9 3.4-1.1 1.5-.2 2.9-.6 3.2-1 .5-.7 1.8-.9 11.3-1.6 3.2-.2 6-.6 6.2-.8.3-.2 1.9-.3 3.7-.1 1.8.2 6 .5 9.3.8z"/><path d="M120.6 75.8c-.2.1-1.4.5-2.7.8-1.3.3-2.8.7-3.4.8-.5.2-2.5.7-4.2 1.1-1.8.4-3.3 1.2-3.3 1.7s-.5.6-1 .3c-.6-.3-1.7.1-2.6.9-.9.9-1.9 1.4-2.4 1.1-.5-.3-1-.2-1.2.2-.1.5-2.9 2.7-6 5.1-3.1 2.4-6.3 5.4-7.2 6.6-.8 1.3-2.1 2.9-2.8 3.7-2 2-7.9 14.2-8.1 16.7-.1 1.2-.4 2.2-.8 2.2s-.7 1.7-.6 3.7c.1 2.8-.3 3.7-1.3 3.5-.9-.2-1.1.1-.3 1 .5.7.9 3 .7 5.1-.1 2 .3 4 .8 4.3.5.3.5 1.1-.2 1.9-.8.9-.8 1.5 0 2 .6.3.8 1 .5 1.5-.6 1 3.2 12.8 4.8 14.7.5.7.6 1.3.3 1.3-.4 0-.1.7.6 1.5 3 3.3 3.8 4.5 3.2 4.5-.4 0 .3.8 1.4 1.9 1.2 1 2.2 2.1 2.2 2.5 0 .8 3.9 4.5 7.6 7.2 1.4 1 3.2 2.5 4 3.2.7.7 1.5 1.2 1.6 1.1.2-.1 2.2.8 4.6 2 2.3 1.2 4.2 1.9 4.2 1.5 0-.4.6-.1 1.3.5.8.6 2.7 1.2 4.3 1.4 1.7.2 3.4.6 4 .9 1.4.9 19.4.6 19.4-.3 0-.4.6-.6 1.3-.6 2.1.2 8.7-1.5 8.7-2.2 0-.4.9-.7 2-.8 1.1-.1 3.2-1.1 4.6-2.2 1.5-1.2 3.3-2.1 4-2.1.7 0 1.9-.8 2.6-1.8.7-1 2.5-2.7 4-3.8 3.3-2.6 9.3-10.4 10.3-13.3.3-1.1 1.1-2.1 1.7-2.1.5 0 .8-.6.5-1.4-.3-.8-.2-1.6.3-1.8.6-.2 1.5-2.7 2.2-5.6.7-2.8 1.5-5.2 1.8-5.2.3 0 .5-4.2.4-9.3 0-9.2-1-16.3-2.4-18.2-.4-.6-1.1-2.4-1.4-4.2-.4-1.7-1.4-3.7-2.2-4.3-.7-.7-1.1-1.6-.8-2.1.3-.5 0-.9-.5-.9-.6 0-1.1-.4-1.1-1 0-1.9-7.3-9.8-13.5-14.6-5.5-4.4-15.3-8.7-22.5-9.9-3.7-.7-17-1.2-17.4-.7z"/></svg>