<svg xmlns="http://www.w3.org/2000/svg" viewBox="0 0 841.9 595.3"><path d="M46.1 366.5c-10.5 0-20.9-2-26.2-4v55.8H5.2V237.1c8.2-4.7 24.9-9.2 40.4-9.2 39.7 0 62.6 27.4 62.6 67.8-.1 40.9-22.5 70.8-62.1 70.8zm-.3-126.4c-10.2 0-21.2 2.5-25.9 5v105.2c4.5 1.8 16.2 4 25.4 4 31.4 0 48.1-25.2 48.1-58.6 0-33.2-16.9-55.6-47.6-55.6zm150.9 1c-3-.5-6.5-.7-10-.7-10.7 0-22.9 2-29.9 5.2v119.2h-14.7V237.1c11.2-5.5 29.7-9.2 46.4-9.2 5.5 0 10.2.2 11.4.5l-3.2 12.7zM274 367.3c-36.4 0-55.4-30.2-55.4-69.8 0-39.6 19-69.5 55.4-69.5s55.3 29.9 55.3 69.5-19 69.8-55.3 69.8zm0-127.2c-27.7 0-40.7 24.4-40.7 57.3s13 57.4 40.7 57.4 40.7-24.5 40.7-57.4c-.1-32.9-13.1-57.3-40.7-57.3zm132.6 127.7c-18.7 0-36.6-4.5-47.6-9.8V169h33.9v64.1c6-2.7 15.7-4.5 23.7-4.5 34.9 0 58.6 24.2 58.6 65.3-.1 50.4-25.7 73.9-68.6 73.9zm3.5-113.2c-6.3 0-13 1.5-17.2 3.5v80.3c3.2 1.5 9.5 2.8 15.7 2.8 19.4 0 32.4-14.7 32.4-44.4 0-26.6-11.7-42.2-30.9-42.2zm145.1 113.2c-40.4 0-60.6-16-60.6-43.4 0-36.6 38.2-43.9 78.8-46.1v-7c0-13.9-9.7-19.2-25.2-19.2-12.7 0-28.2 4-37.6 8l-8.5-22.9c11.2-4.7 30.4-9.7 49.9-9.7 34.4 0 53.6 13.4 53.6 47.9V358c-10 5.2-30.2 9.8-50.4 9.8zm18.2-67.9c-24.9 1.2-46.9 3.5-46.9 23.7 0 12.7 10 19.9 27.7 19.9 7.2 0 15.7-1.2 19.2-2.7v-40.9zm98.2 67.9c-16.7 0-33.4-4.5-43.4-9.8l11-25.9c6.7 4.3 21.7 8.7 31.4 8.7 12.2 0 20.2-5.7 20.2-14.7 0-10-8.7-14.2-20.7-18.5-17-6.2-38.4-14.2-38.4-40.6 0-23.7 17.9-39.6 49.4-39.6 17.2 0 31.1 4.2 41.4 9.7L712 260.3c-5.7-3.5-17.7-7.7-26.7-7.7-11.9 0-19 6-19 14 0 10.2 8.7 14.2 20.4 18.5 17.7 6.5 39.4 13.9 39.4 41.1.1 25.1-18.6 41.6-54.5 41.6zm113 0c-16.7 0-33.4-4.5-43.4-9.8l10.9-25.9c6.8 4.3 21.7 8.7 31.4 8.7 12.3 0 20.2-5.7 20.2-14.7 0-10-8.7-14.2-20.7-18.5-16.9-6.2-38.4-14.2-38.4-40.6 0-23.7 18-39.6 49.4-39.6 17.2 0 31.2 4.2 41.4 9.7L825 260.3c-5.7-3.5-17.7-7.7-26.7-7.7-12 0-19 6-19 14 0 10.2 8.7 14.2 20.5 18.5 17.7 6.5 39.4 13.9 39.4 41.1 0 25.1-18.7 41.6-54.6 41.6z" fill="#FFF"/></svg>