<svg xmlns="http://www.w3.org/2000/svg" viewBox="0 0 841.9 595.3"><path d="M268.9 349.8c-7.4 0-14.9-1.4-18.6-2.8v39.7h-10.5v-129c5.8-3.4 17.7-6.5 28.7-6.5 28.2 0 44.5 19.5 44.5 48.3.1 29-15.9 50.3-44.1 50.3zm-.2-89.9c-7.3 0-15.1 1.8-18.5 3.5v74.9c3.2 1.3 11.5 2.8 18.1 2.8 22.4 0 34.3-17.9 34.3-41.7 0-23.6-12.1-39.5-33.9-39.5zm107.4.7c-2.1-.3-4.6-.5-7.1-.5-7.6 0-16.3 1.4-21.3 3.7v84.8h-10.5v-90.9c8-3.9 21.1-6.5 33-6.5 3.9 0 7.3.2 8.1.3l-2.2 9.1zm55 89.8c-25.9 0-39.4-21.5-39.4-49.7 0-28.2 13.5-49.5 39.4-49.5s39.4 21.3 39.4 49.5-13.5 49.7-39.4 49.7zm0-90.5c-19.7 0-28.9 17.4-28.9 40.8s9.2 40.8 28.9 40.8 28.9-17.4 28.9-40.8c0-23.5-9.2-40.8-28.9-40.8zm94.4 90.8c-13.3 0-26.1-3.2-33.9-6.9V209.3h24.1v45.6c4.3-1.9 11.2-3.2 16.9-3.2 24.8 0 41.7 17.2 41.7 46.5 0 35.8-18.3 52.5-48.8 52.5zm2.5-80.5c-4.5 0-9.2 1-12.2 2.5v57.1c2.3 1.1 6.7 2 11.2 2 13.8 0 23.1-10.5 23.1-31.6-.1-18.9-8.5-30-22.1-30zm103.2 80.5c-28.7 0-43.1-11.4-43.1-30.9 0-26.1 27.2-31.2 56.1-32.8v-5c0-9.9-6.9-13.7-17.9-13.7-9 0-20.1 2.8-26.8 5.7l-6.1-16.3c8-3.4 21.7-6.9 35.5-6.9 24.5 0 38.1 9.6 38.1 34.1v58.9c-7 3.7-21.4 6.9-35.8 6.9zm13-48.3c-17.7.9-33.4 2.5-33.4 16.9 0 9.1 7.1 14.2 19.7 14.2 5.1 0 11.2-.9 13.7-1.9v-29.2zm69.9 48.3c-11.9 0-23.8-3.2-30.9-6.9l7.8-18.5c4.8 3 15.4 6.2 22.4 6.2 8.7 0 14.4-4.1 14.4-10.5 0-7.1-6.2-10.1-14.7-13.1-12.1-4.4-27.3-10.1-27.3-28.9 0-16.9 12.8-28.2 35.1-28.2 12.3 0 22.2 3 29.5 6.9l-7.5 16.5c-4.1-2.5-12.6-5.5-19-5.5-8.5 0-13.5 4.3-13.5 9.9 0 7.3 6.2 10.1 14.6 13.1 12.6 4.6 28.1 9.9 28.1 29.3-.1 18-13.4 29.7-39 29.7zm80.4 0c-11.9 0-23.8-3.2-30.9-6.9l7.8-18.5c4.8 3 15.4 6.2 22.4 6.2 8.7 0 14.4-4.1 14.4-10.5 0-7.1-6.2-10.1-14.7-13.1-12.1-4.4-27.3-10.1-27.3-28.9 0-16.9 12.8-28.2 35.1-28.2 12.3 0 22.2 3 29.5 6.9l-7.5 16.5c-4.1-2.5-12.6-5.5-19-5.5-8.5 0-13.5 4.3-13.5 9.9 0 7.3 6.2 10.1 14.6 13.1 12.6 4.6 28 9.9 28 29.3-.1 18-13.3 29.7-38.9 29.7zM189.1 298c0 49-39.7 88.7-88.7 88.7S11.6 347 11.6 298v-88.7h88.7c49 0 88.8 39.7 88.8 88.7zm-88.8-63.4C65.3 234.6 37 263 37 298s28.4 63.4 63.4 63.4 63.4-28.4 63.4-63.4c-.1-35-28.5-63.4-63.5-63.4z" fill="#FFF"/><path fill="#FFF" d="M138.4 298c0 21-17 38-38 38s-38-17-38-38 17-38 38-38 38 17 38 38z"/></svg>