<?xml version="1.0" encoding="utf-8"?>
<!-- Generator: Adobe Illustrator 18.1.1, SVG Export Plug-In . SVG Version: 6.00 Build 0)  -->
<svg version="1.1" id="Слой_1" xmlns="http://www.w3.org/2000/svg" xmlns:xlink="http://www.w3.org/1999/xlink" x="0px" y="0px"
	 viewBox="0 0 841.9 595.3" enable-background="new 0 0 841.9 595.3" xml:space="preserve">
<g>
	<path fill="#333333" d="M268.9,349.8c-7.4,0-14.9-1.4-18.6-2.8v39.7h-10.5v-129c5.8-3.4,17.7-6.5,28.7-6.5
		c28.2,0,44.5,19.5,44.5,48.3C313.1,328.5,297.1,349.8,268.9,349.8z M268.7,259.9c-7.3,0-15.1,1.8-18.5,3.5v74.9
		c3.2,1.3,11.5,2.8,18.1,2.8c22.4,0,34.3-17.9,34.3-41.7C302.6,275.8,290.5,259.9,268.7,259.9z"/>
	<path fill="#333333" d="M376.1,260.6c-2.1-0.3-4.6-0.5-7.1-0.5c-7.6,0-16.3,1.4-21.3,3.7v84.8h-10.5v-90.9c8-3.9,21.1-6.5,33-6.5
		c3.9,0,7.3,0.2,8.1,0.3L376.1,260.6z"/>
	<path fill="#333333" d="M431.1,350.4c-25.9,0-39.4-21.5-39.4-49.7c0-28.2,13.5-49.5,39.4-49.5c25.9,0,39.4,21.3,39.4,49.5
		C470.5,328.9,457,350.4,431.1,350.4z M431.1,259.9c-19.7,0-28.9,17.4-28.9,40.8c0,23.4,9.2,40.8,28.9,40.8
		c19.7,0,28.9-17.4,28.9-40.8C460,277.2,450.8,259.9,431.1,259.9z"/>
	<path fill="#505050" d="M525.5,350.7c-13.3,0-26.1-3.2-33.9-6.9V209.3h24.1v45.6c4.3-1.9,11.2-3.2,16.9-3.2
		c24.8,0,41.7,17.2,41.7,46.5C574.3,334,556,350.7,525.5,350.7z M528,270.2c-4.5,0-9.2,1-12.2,2.5v57.1c2.3,1.1,6.7,2,11.2,2
		c13.8,0,23.1-10.5,23.1-31.6C550,281.3,541.6,270.2,528,270.2z"/>
	<path fill="#505050" d="M631.2,350.7c-28.7,0-43.1-11.4-43.1-30.9c0-26.1,27.2-31.2,56.1-32.8v-5c0-9.9-6.9-13.7-17.9-13.7
		c-9,0-20.1,2.8-26.8,5.7l-6.1-16.3c8-3.4,21.7-6.9,35.5-6.9c24.5,0,38.1,9.6,38.1,34.1v58.9C660,347.5,645.6,350.7,631.2,350.7z
		 M644.2,302.4c-17.7,0.9-33.4,2.5-33.4,16.9c0,9.1,7.1,14.2,19.7,14.2c5.1,0,11.2-0.9,13.7-1.9V302.4z"/>
	<path fill="#505050" d="M714.1,350.7c-11.9,0-23.8-3.2-30.9-6.9l7.8-18.5c4.8,3,15.4,6.2,22.4,6.2c8.7,0,14.4-4.1,14.4-10.5
		c0-7.1-6.2-10.1-14.7-13.1c-12.1-4.4-27.3-10.1-27.3-28.9c0-16.9,12.8-28.2,35.1-28.2c12.3,0,22.2,3,29.5,6.9l-7.5,16.5
		c-4.1-2.5-12.6-5.5-19-5.5c-8.5,0-13.5,4.3-13.5,9.9c0,7.3,6.2,10.1,14.6,13.1c12.6,4.6,28.1,9.9,28.1,29.3
		C753,339,739.7,350.7,714.1,350.7z"/>
	<path fill="#505050" d="M794.5,350.7c-11.9,0-23.8-3.2-30.9-6.9l7.8-18.5c4.8,3,15.4,6.2,22.4,6.2c8.7,0,14.4-4.1,14.4-10.5
		c0-7.1-6.2-10.1-14.7-13.1c-12.1-4.4-27.3-10.1-27.3-28.9c0-16.9,12.8-28.2,35.1-28.2c12.3,0,22.2,3,29.5,6.9l-7.5,16.5
		c-4.1-2.5-12.6-5.5-19-5.5c-8.5,0-13.5,4.3-13.5,9.9c0,7.3,6.2,10.1,14.6,13.1c12.6,4.6,28,9.9,28,29.3
		C833.3,339,820.1,350.7,794.5,350.7z"/>
</g>
<path fill="#8a8a8a" d="M189.1,298c0,49-39.7,88.7-88.7,88.7S11.6,347,11.6,298v-88.7h88.7C149.3,209.3,189.1,249,189.1,298z
	 M100.3,234.6C65.3,234.6,37,263,37,298c0,35,28.4,63.4,63.4,63.4c35,0,63.4-28.4,63.4-63.4C163.7,263,135.3,234.6,100.3,234.6z"/>
<path fill="#8a8a8a" d="M138.4,298c0,21-17,38-38,38s-38-17-38-38c0-21,17-38,38-38S138.4,277,138.4,298z"/>
</svg>
